<svg width="84" height="84" viewBox="0 0 84 84" fill="none" xmlns="http://www.w3.org/2000/svg">
<circle cx="42.1696" cy="41.9137" r="41.4743" fill="#F5A180"/>
<mask id="path-2-inside-1_892_2094" fill="white">
<path d="M33.5295 50.4773C34.8256 42.7225 45.6262 37.9702 49.0824 50.4773H33.5295Z"/>
</mask>
<path d="M33.5295 50.4773L25.0073 49.053L23.3251 59.1178H33.5295V50.4773ZM49.0824 50.4773V59.1178H60.4344L57.4107 48.1759L49.0824 50.4773ZM42.0518 51.9017C42.0807 51.7287 42.1828 51.5082 42.3428 51.3364C42.4139 51.2601 42.4542 51.24 42.431 51.2534C42.4082 51.2666 42.2785 51.3375 42.0293 51.3824C41.7681 51.4295 41.4024 51.4415 40.9864 51.3426C40.5592 51.2411 40.2356 51.0595 40.0416 50.9073C39.677 50.6211 40.2126 50.8193 40.7541 52.7788L57.4107 48.1759C56.2241 43.8818 54.1135 39.9839 50.7113 37.3135C47.1516 34.5196 42.9096 33.664 38.9625 34.3758C31.6836 35.6884 26.1879 41.9888 25.0073 49.053L42.0518 51.9017ZM49.0824 41.8369H33.5295V59.1178H49.0824V41.8369Z" fill="black" mask="url(#path-2-inside-1_892_2094)"/>
<path d="M21.4331 35.002C21.4331 36.8741 23.1612 40.5319 26.6174 40.1862C30.0736 39.8406 30.6496 36.586 30.9376 35.002" stroke="black" stroke-width="1.7281"/>
<path d="M52.5386 35.002C52.5386 36.8741 54.2667 40.5319 57.7229 40.1862C61.1791 39.8406 61.7551 36.586 62.0431 35.002" stroke="black" stroke-width="1.7281"/>
<path d="M50.8731 53.696L47.7441 56.7952L46.3968 55.0578C45.8252 54.3207 45.654 53.8196 45.6005 53.5558C45.5504 53.309 45.5729 53.1274 45.6292 52.9533C45.7635 52.5376 46.1249 52.0731 46.6252 51.6162C46.757 51.5582 47.0088 51.4959 47.424 51.534C47.6701 51.5567 47.8967 51.6101 48.0642 51.6668C48.1054 51.6807 48.1379 51.6931 48.1617 51.7028L50.8731 53.696ZM53.327 58.4869L51.3564 54.0513L52.184 54.6597L53.871 49.8151C53.9648 49.5457 54.0012 49.5294 54.0163 49.5227C54.0181 49.5219 54.0196 49.5212 54.0209 49.5202C54.1178 49.4453 54.6224 49.1079 56.1512 48.874C56.484 48.8231 56.6626 48.8704 56.753 48.9046C56.8569 48.9438 56.9867 49.0218 57.133 49.182C57.2855 49.349 57.434 49.5838 57.545 49.8673C57.6574 50.1541 57.702 50.4161 57.7069 50.5952L57.8451 55.6268L56.533 53.2523L53.5488 58.8245C53.5094 58.7744 53.4721 58.723 53.4378 58.6719C53.3687 58.569 53.3339 58.5004 53.3275 58.4878C53.3263 58.4854 53.3262 58.4851 53.327 58.4869ZM59.9001 59.3459L59.809 59.181L63.9067 53.6029C64.0317 53.773 64.1714 54.0021 64.319 54.3103C64.5516 54.7958 64.7274 55.3368 64.8395 55.8378C64.8946 56.0837 64.9296 56.2992 64.9494 56.4702C64.9703 56.6504 64.9692 56.738 64.9692 56.7364L64.9678 56.7895L64.9678 56.8422C64.9677 56.8422 64.967 56.883 64.9482 56.9673C64.9285 57.0559 64.892 57.178 64.8287 57.3306C64.6999 57.6408 64.4842 58.0178 64.1689 58.4155C63.5244 59.2284 62.6286 59.9235 61.6768 60.2933C61.4085 60.3975 61.2546 60.3933 61.1761 60.3846C61.0815 60.3742 60.9522 60.3382 60.7813 60.2386C60.6032 60.1349 60.4132 59.9803 60.2354 59.7891C60.0544 59.5944 59.9421 59.4219 59.9001 59.3459ZM46.7744 57.6614C46.7619 57.6665 46.7556 57.668 46.7556 57.6675C46.7556 57.667 46.7618 57.6644 46.7744 57.6614Z" stroke="#EBEBEB" stroke-width="7.57499"/>
</svg>
