<svg width="84" height="84" viewBox="0 0 84 84" fill="none" xmlns="http://www.w3.org/2000/svg">
<circle cx="42.0173" cy="41.9137" r="41.4743" fill="#B1C9FF"/>
<mask id="path-2-inside-1_892_2063" fill="white">
<path d="M22.4243 58.1398V52.5235C24.1532 45.1791 30.6319 48.2032 30.6319 51.2274C30.6319 53.6467 30.0559 57.4198 29.7679 59.0038C29.1919 59.5799 28.3854 61.6824 29.7679 65.4842C31.2508 69.5621 29.9198 72.5863 29.7679 74.3144V81.4691C25.9661 80.7778 22.7115 78.5889 21.5594 77.5809C22.9419 73.4334 22.712 68.6524 22.4243 66.7803C20.3506 61.596 21.5603 58.8598 22.4243 58.1398Z"/>
</mask>
<path d="M22.4243 52.5235L5.60314 48.5637L5.14335 50.5169V52.5235H22.4243ZM22.4243 58.1398L33.4873 71.4154L39.7053 66.2338V58.1398H22.4243ZM22.4243 66.7803L39.5047 64.155L39.2041 62.1994L38.4693 60.3623L22.4243 66.7803ZM21.5594 77.5809L5.16529 72.1161L1.53117 83.0185L10.1799 90.5861L21.5594 77.5809ZM29.7679 81.4691L26.6766 98.4713L47.0488 102.175V81.4691H29.7679ZM29.7679 74.3144L12.5533 72.8014L12.4869 73.5564V74.3144H29.7679ZM29.7679 65.4842L46.0084 59.5786V59.5786L29.7679 65.4842ZM29.7679 59.0038L41.9874 71.2233L45.8044 67.4062L46.7701 62.0951L29.7679 59.0038ZM5.14335 52.5235V58.1398H39.7053V52.5235H5.14335ZM11.3613 44.8642C1.95574 52.7022 3.16687 65.1671 6.37934 73.1983L38.4693 60.3623C38.2324 59.7702 38.7161 60.6436 38.5067 62.6131C38.4032 63.5871 38.1219 64.8692 37.4586 66.3063C36.8598 67.6036 35.69 69.5798 33.4873 71.4154L11.3613 44.8642ZM5.34393 69.4055C5.31221 69.1992 5.33118 69.2615 5.34739 69.5728C5.36197 69.853 5.36804 70.2199 5.35158 70.6237C5.33502 71.03 5.29876 71.3968 5.25098 71.6978C5.2019 72.007 5.15774 72.1388 5.16529 72.1161L37.9536 83.0456C40.5031 75.3971 40.037 67.6186 39.5047 64.155L5.34393 69.4055ZM10.1799 90.5861C12.9495 93.0095 18.9668 97.0695 26.6766 98.4713L32.8592 64.4669C32.9585 64.4849 33.022 64.5016 33.049 64.5092C33.0762 64.5168 33.0774 64.5184 33.0534 64.5095C33.0296 64.5006 32.9901 64.4849 32.937 64.4608C32.884 64.4368 32.8256 64.4082 32.7644 64.3758C32.7032 64.3433 32.6469 64.3111 32.5986 64.2819C32.55 64.2526 32.518 64.2314 32.5056 64.223C32.4918 64.2136 32.5127 64.2271 32.5689 64.27C32.5979 64.2921 32.642 64.3264 32.7001 64.3736C32.7571 64.42 32.838 64.4872 32.939 64.5756L10.1799 90.5861ZM47.0488 81.4691V74.3144H12.4869V81.4691H47.0488ZM46.9825 75.8274C46.9084 76.6703 46.73 77.3992 46.9582 76.3037C47.0928 75.6577 47.3738 74.313 47.554 72.7087C47.9432 69.2418 47.8641 64.6816 46.0084 59.5786L13.5274 71.3898C13.369 70.9543 13.255 70.4503 13.2066 69.9254C13.1597 69.4153 13.188 69.0294 13.2079 68.8523C13.2216 68.7297 13.2342 68.7199 13.1228 69.2545C13.102 69.3544 13.0587 69.5605 13.0248 69.7256C12.987 69.9091 12.938 70.1516 12.8877 70.4197C12.7957 70.9101 12.6436 71.7738 12.5533 72.8014L46.9825 75.8274ZM46.0084 59.5786C46.0265 59.6282 46.4187 60.7346 46.2386 62.6509C46.15 63.5937 45.9149 64.794 45.3754 66.1428C44.899 67.3338 43.927 69.2837 41.9874 71.2233L17.5484 46.7844C13.4765 50.8563 12.1593 55.8944 11.8283 59.4178C11.4466 63.4798 12.1268 67.5384 13.5274 71.3898L46.0084 59.5786ZM46.7701 62.0951C47.0757 60.4145 47.9129 55.3233 47.9129 51.2274H13.351C13.351 51.2046 13.3496 51.3938 13.3135 51.8383C13.2797 52.2526 13.2275 52.7475 13.1598 53.2907C13.0215 54.3996 12.8551 55.4207 12.7657 55.9125L46.7701 62.0951ZM47.9129 51.2274C47.9129 44.3285 44.3901 39.303 41.4042 36.5071C38.2663 33.5688 34.0314 31.3937 29.1959 30.8247C24.0228 30.216 18.2394 31.5046 13.4354 35.4701C8.85114 39.254 6.61909 44.248 5.60314 48.5637L39.2455 56.4833C39.094 57.1268 38.3201 59.7446 35.4369 62.1245C32.3338 64.6859 28.4944 65.5425 25.157 65.1498C22.1573 64.7968 19.6502 63.4857 17.781 61.7355C16.0639 60.1276 13.351 56.6142 13.351 51.2274H47.9129Z" fill="#8EFFFD" mask="url(#path-2-inside-1_892_2063)"/>
<mask id="path-4-inside-2_892_2063" fill="white">
<path d="M60.9492 58.1974V52.5493C59.5116 45.1633 54.1248 48.2046 54.1248 51.2459C54.1248 53.6789 54.6037 57.4733 54.8432 59.0664C54.9775 60.0576 55.9927 61.7601 54.8432 65.5834C53.6102 69.6844 54.7169 72.7257 54.8432 74.4636V81.3564C57.1376 80.7947 61.0258 79.0666 61.8899 78.2026C60.7404 74.0317 60.7099 68.7695 60.9492 66.8868C62.6734 61.6732 61.0258 59.1936 60.9492 58.1974Z"/>
</mask>
<path d="M60.9492 52.5493L77.9118 49.2479L78.2301 50.8832V52.5493H60.9492ZM60.9492 58.1974L43.7192 59.5237L43.6682 58.8615V58.1974H60.9492ZM60.9492 66.8868L43.8061 64.7083L44.017 63.0489L44.5422 61.4608L60.9492 66.8868ZM61.8899 78.2026L78.5497 73.6112L81.2224 83.309L74.1094 90.4221L61.8899 78.2026ZM54.8432 81.3564L58.9521 98.1418L37.5623 103.378V81.3564H54.8432ZM54.8432 74.4636L72.0787 73.2111L72.1242 73.8365V74.4636H54.8432ZM54.8432 65.5834L38.294 60.6079L54.8432 65.5834ZM54.8432 59.0664L71.9321 56.4975L71.9508 56.6216L71.9677 56.7461L54.8432 59.0664ZM78.2301 52.5493V58.1974H43.6682V52.5493H78.2301ZM78.1791 56.8711C78.0501 55.195 77.6789 53.9693 77.6705 53.9398C77.66 53.9025 77.5712 53.6031 77.755 54.2066C77.9979 55.0041 78.4355 56.5071 78.7205 58.4387C79.3259 62.5431 79.0514 67.1869 77.3562 72.3129L44.5422 61.4608C44.583 61.3374 44.512 61.5133 44.4737 61.9467C44.4337 62.3977 44.4467 62.9275 44.5286 63.4824C44.6075 64.0179 44.7267 64.3884 44.693 64.2779C44.6671 64.1928 44.6693 64.2014 44.6109 64.012C44.573 63.8888 44.4954 63.6363 44.4133 63.3462C44.3321 63.0591 44.2044 62.5885 44.0819 62.0158C43.9621 61.4556 43.801 60.5872 43.7192 59.5237L78.1791 56.8711ZM78.0923 69.0653C78.1427 68.6683 78.1198 68.6568 78.1124 69.1318C78.1064 69.5214 78.114 70.0591 78.1501 70.676C78.2299 72.0378 78.4077 73.0959 78.5497 73.6112L45.23 82.794C43.3965 76.1411 43.3178 68.5509 43.8061 64.7083L78.0923 69.0653ZM74.1094 90.4221C72.071 92.4604 69.8246 93.7035 69.1914 94.0582C68.0947 94.6724 66.9646 95.2187 65.9478 95.6727C64.0631 96.5141 61.4776 97.5235 58.9521 98.1418L50.7343 64.571C50.5913 64.6061 50.5424 64.6234 50.6001 64.6053C50.6503 64.5896 50.7486 64.5572 50.8912 64.5054C51.1866 64.3981 51.5328 64.2583 51.8581 64.1131C52.2081 63.9568 52.3555 63.874 52.3026 63.9037C52.2766 63.9182 52.067 64.0353 51.7428 64.2548C51.5747 64.3687 51.3159 64.5505 51.0007 64.7988C50.7014 65.0345 50.2229 65.4306 49.6704 65.9831L74.1094 90.4221ZM37.5623 81.3564V74.4636H72.1242V81.3564H37.5623ZM37.6077 75.716C37.6533 76.3435 37.761 76.8668 37.5864 75.853C37.4756 75.2101 37.2625 73.972 37.1265 72.507C36.8375 69.3936 36.8868 65.2885 38.294 60.6079L71.3924 70.5589C71.4649 70.3176 71.5155 70.0427 71.5364 69.7682C71.5566 69.503 71.5421 69.3296 71.5404 69.3123C71.5402 69.3095 71.5437 69.349 71.5593 69.4546C71.5764 69.571 71.6001 69.7155 71.6467 69.9862C71.6807 70.1838 71.7647 70.6611 71.8331 71.1025C71.9038 71.5585 72.0139 72.3195 72.0787 73.2111L37.6077 75.716ZM38.294 60.6079C38.2752 60.6706 38.1852 60.9938 38.1361 61.5371C38.1119 61.8052 38.0998 62.1039 38.1059 62.4276C38.112 62.7524 38.1359 63.0725 38.174 63.3811C38.2517 64.0102 38.3751 64.4591 38.3691 64.4367C38.3604 64.4042 38.3557 64.3872 38.3227 64.2667C38.2987 64.1789 38.2483 63.9946 38.1947 63.7866C38.1401 63.5748 38.0612 63.2578 37.9802 62.88C37.8993 62.5023 37.8006 61.991 37.7187 61.3867L71.9677 56.7461C71.8473 55.8574 71.6777 55.2181 71.6631 55.1618C71.6479 55.1027 71.6398 55.0741 71.6605 55.1498C71.6722 55.1927 71.7146 55.3468 71.7539 55.4936C71.9401 56.1888 72.2707 57.488 72.4753 59.1446C72.9118 62.6794 72.6201 66.4755 71.3924 70.5589L38.294 60.6079ZM37.7543 61.6353C37.5017 59.9553 36.8438 55.0663 36.8438 51.2459H71.4057C71.4057 51.5614 71.4518 52.4165 71.584 53.699C71.705 54.872 71.8503 55.953 71.9321 56.4975L37.7543 61.6353ZM36.8438 51.2459C36.8438 45.4826 39.291 40.7977 42.035 37.69C44.7881 34.5719 49.0472 31.6638 54.563 30.8788C60.7291 30.0013 66.9537 32.0478 71.4859 36.5725C75.5154 40.5954 77.1814 45.4949 77.9118 49.2479L43.9865 55.8508C43.9982 55.9107 44.4518 58.4206 47.0669 61.0315C50.1847 64.1442 54.7931 65.7562 59.4327 65.0959C63.4222 64.5282 66.2447 62.4891 67.9429 60.5658C69.6319 58.6529 71.4057 55.4885 71.4057 51.2459H36.8438Z" fill="#8EFFFD" mask="url(#path-4-inside-2_892_2063)"/>
<mask id="path-6-inside-3_892_2063" fill="white">
<path d="M34.241 60.8465C35.537 53.0916 46.3376 48.3394 49.7938 60.8465H34.241Z"/>
</mask>
<path d="M34.241 60.8465L25.7187 59.4222L24.0366 69.487H34.241V60.8465ZM49.7938 60.8465V69.487H61.1458L58.1222 58.545L49.7938 60.8465ZM42.7632 62.2708C42.7921 62.0979 42.8942 61.8773 43.0542 61.7055C43.1253 61.6292 43.1657 61.6091 43.1425 61.6225C43.1196 61.6357 42.9899 61.7066 42.7407 61.7516C42.4796 61.7987 42.1138 61.8107 41.6978 61.7118C41.2706 61.6103 40.947 61.4286 40.7531 61.2764C40.3884 60.9902 40.924 61.1884 41.4655 63.1479L58.1222 58.545C56.9355 54.251 54.825 50.3531 51.4227 47.6826C47.863 44.8887 43.6211 44.0332 39.674 44.7449C32.395 46.0575 26.8993 52.3579 25.7187 59.4222L42.7632 62.2708ZM49.7938 52.206H34.241V69.487H49.7938V52.206Z" fill="black" mask="url(#path-6-inside-3_892_2063)"/>
<path d="M22.1445 52.7132C22.2885 51.1291 23.3542 47.9609 26.4648 47.9609C30.353 47.9609 30.785 51.8492 31.217 52.7132" stroke="black" stroke-width="1.7281"/>
<path d="M53.25 52.7132C53.394 51.1291 54.4597 47.9609 57.5702 47.9609C61.4585 47.9609 61.8905 51.8492 62.3225 52.7132" stroke="black" stroke-width="1.7281"/>
</svg>
