<svg width="84" height="84" viewBox="0 0 84 84" fill="none" xmlns="http://www.w3.org/2000/svg">
<circle cx="42.1423" cy="41.9137" r="41.4743" fill="#FF81D8"/>
<mask id="path-2-inside-1_892_2084" fill="white">
<path d="M22.7065 54.8753L25.7307 47.9629C26.5948 49.403 28.5821 52.8016 29.619 54.8753C30.6559 56.949 30.339 58.9075 30.051 59.6275C29.3309 60.7796 27.1995 62.7381 24.4346 61.3556C21.6696 59.9732 22.1305 56.4594 22.7065 54.8753Z"/>
</mask>
<path d="M25.7307 47.9629L40.5488 39.0716L23.3201 10.3586L9.8986 41.0364L25.7307 47.9629ZM22.7065 54.8753L6.87443 47.9487L6.65396 48.4527L6.46598 48.9696L22.7065 54.8753ZM24.4346 61.3556L16.7063 76.8122H16.7063L24.4346 61.3556ZM30.051 59.6275L44.705 68.7868L45.5229 67.4783L46.096 66.0455L30.051 59.6275ZM9.8986 41.0364L6.87443 47.9487L38.5386 61.8018L41.5627 54.8894L9.8986 41.0364ZM6.46598 48.9696C5.48702 51.6618 4.58875 55.7494 5.174 60.3649C5.82679 65.513 8.71456 72.8163 16.7063 76.8122L32.1629 45.8991C34.4261 47.0307 36.3342 48.8065 37.6462 50.9446C38.8727 52.9434 39.3074 54.8029 39.4614 56.0172C39.7298 58.1342 39.3499 59.6729 38.947 60.7809L6.46598 48.9696ZM16.7063 76.8122C23.3357 80.1269 30.1767 79.5484 35.4346 77.0465C39.9347 74.9053 42.9574 71.5828 44.705 68.7868L15.397 50.4683C16.4246 48.8243 18.0215 47.0571 20.5846 45.8375C22.0327 45.1485 23.9355 44.578 26.17 44.5511C28.4597 44.5237 30.5173 45.0763 32.1629 45.8991L16.7063 76.8122ZM46.096 66.0455C47.9821 61.3303 48.588 54.172 45.0756 47.147L14.1625 62.6035C13.3737 61.0261 13.0771 59.4357 13.0534 58.0557C13.0417 57.3722 13.0947 56.6792 13.2149 55.9731C13.323 55.3381 13.5382 54.3791 14.0061 53.2095L46.096 66.0455ZM45.0756 47.147C43.7107 44.4174 41.4126 40.5113 40.5488 39.0716L10.9126 56.8542C11.2829 57.4714 11.93 58.5691 12.5958 59.7374C13.2974 60.9686 13.8624 62.0034 14.1625 62.6035L45.0756 47.147Z" fill="#96FFF6" mask="url(#path-2-inside-1_892_2084)"/>
<path d="M35.2297 51.849C37.9659 48.2488 45.3391 43.2085 52.9427 51.849" stroke="black" stroke-width="1.62644"/>
<circle cx="27.4518" cy="41.914" r="4.32024" fill="black"/>
<circle cx="59.4225" cy="41.914" r="4.32024" fill="black"/>
<circle cx="26.3598" cy="44.0226" r="1.29607" fill="white"/>
<circle cx="58.8886" cy="44.0226" r="1.29607" fill="white"/>
</svg>
